PathFileType	3	(X/Y/Z)	D:\Vicon Database\Healthy Subjects\S0040\Jan. 30, 2020\Force Plate Walk 2.trc
DataRate	CameraRate	NumFrames	NumMarkers	Units	OrigDataRate	OrigDataStartFrame	OrigNumFrames
100.0	100.0	5	53	mm	100.0	535	306	
Frame#	Time	right_foot_cluster2			right_foot_cluster3			sternum_cluster1			sternum_cluster2			sternum_cluster3			left_asis			right_asis			left_psis			right_psis			sacrum_cluster1			sacrum_cluster2			sacrum_cluster3			left_lat_femoral_epicondyle			left_anterior_thigh15			left_anterior_thigh25			left_anterior_thigh50			left_lateral_thigh25			left_lateral_thigh50			left_thigh_cluster1			left_thigh_cluster2			left_thigh_cluster3			left_fibular_head			left_tibial_tuberosity			left_anterior_shank30			left_lateral_malleolus			left_shank_cluster1			left_shank_cluster2			left_shank_cluster3			left_heel			left_metatarsal2			left_foot_cluster1			left_foot_cluster2			left_foot_cluster3			right_lat_femoral_epicondyle			right_anterior_thigh15			right_anterior_thigh25			right_anterior_thigh50			right_lateral_thigh25			right_lateral_thigh50			right_thigh_cluster1			right_thigh_cluster2			right_thigh_cluster3			right_fibular_head			right_tibial_tuberosity			right_lateral_distal_shank			right_anterior_shank30			right_lateral_malleolus			right_shank_cluster1			right_shank_cluster2			right_shank_cluster3			right_heel			right_metatarsal2			right_foot_cluster1			
		X1	Y1	Z1	X2	Y2	Z2	X3	Y3	Z3	X4	Y4	Z4	X5	Y5	Z5	X6	Y6	Z6	X7	Y7	Z7	X8	Y8	Z8	X9	Y9	Z9	X10	Y10	Z10	X11	Y11	Z11	X12	Y12	Z12	X13	Y13	Z13	X14	Y14	Z14	X15	Y15	Z15	X16	Y16	Z16	X17	Y17	Z17	X18	Y18	Z18	X19	Y19	Z19	X20	Y20	Z20	X21	Y21	Z21	X22	Y22	Z22	X23	Y23	Z23	X24	Y24	Z24	X25	Y25	Z25	X26	Y26	Z26	X27	Y27	Z27	X28	Y28	Z28	X29	Y29	Z29	X30	Y30	Z30	X31	Y31	Z31	X32	Y32	Z32	X33	Y33	Z33	X34	Y34	Z34	X35	Y35	Z35	X36	Y36	Z36	X37	Y37	Z37	X38	Y38	Z38	X39	Y39	Z39	X40	Y40	Z40	X41	Y41	Z41	X42	Y42	Z42	X43	Y43	Z43	X44	Y44	Z44	X45	Y45	Z45	X46	Y46	Z46	X47	Y47	Z47	X48	Y48	Z48	X49	Y49	Z49	X50	Y50	Z50	X51	Y51	Z51	X52	Y52	Z52	X53	Y53	Z53	
535	5.34	-211.69998	120.51695	-76.87796	-212.78595	122.05273	-114.3489	-225.33054	1449.2865	0.075371653	-237.95795	1421.5555	6.090064	-230.64264	1425.4064	-30.816376	-223.54533	1072.0792	117.36891	-208.84456	1081.2025	-130.38341	-54.781013	1085.1274	76.533363	-45.746929	1086.755	-40.65567	-38.935558	1142.7963	12.439353	-32.756439	1117.4482	0.59370995	-32.472054	1112.1586	39.868317	-152.37456	539.85852	122.84522	-250.15286	618.31543	75.0569	-270.1131	703.01587	93.61055	-271.23129	842.16852	118.95844	-157.59515	691.86957	150.30502	-170.61853	836.90637	183.82739	-163.90887	790.77502	187.44058	-159.87946	761.48175	183.26718	-197.94743	771.26776	186.0403	-147.01114	458.66888	126.38264	-200.40901	444.18454	71.794815	-132.31462	200.72186	49.952969	-57.824791	97.416771	72.165916	-191.28845	390.32504	41.423531	-190.02013	362.26538	48.91024	-176.09822	366.49164	13.238876	18.646456	63.065639	34.098007	-200.86964	59.832157	42.498955	-141.69429	110.33447	45.933949	-164.6512	93.598778	56.991337	-170.27521	98.712906	19.384792	-313.40408	553.10504	-151.82076	-378.25507	656.68384	-98.161453	-362.18518	741.63489	-93.356468	-307.55176	861.44128	-95.453384	-265.34525	702.61591	-171.49222	-207.76079	840.32764	-191.55998	-222.67249	789.81525	-199.31175	-242.6335	768.64862	-197.18785	-207.36063	754.11993	-190.67403	-292.07498	492.89893	-156.52507	-342.09567	465.51285	-109.71107	-157.19385	261.82925	-139.17461	-204.1819	253.14622	-92.466171	-108.20882	166.31027	-125.31474	-298.22412	408.88477	-53.671207	-279.95105	387.51837	-47.093487	-300.04153	374.94034	-76.240288	-26.26997	167.02713	-88.132164	-225.23016	77.834854	-85.00518	-196.5177	143.17044	-86.3573
536	5.35	-254.53258	118.3918	-74.529854	-255.32281	119.92839	-111.96227	-239.35965	1450.0126	0.80275875	-251.90419	1422.2239	6.7638168	-244.43472	1426.0764	-30.108299	-236.32361	1071.864	118.59273	-222.08141	1082.5043	-128.93045	-67.140442	1086.5233	77.363487	-59.084709	1087.8665	-39.955132	-51.845966	1144.1368	13.8292	-45.755203	1118.4922	1.6469404	-45.740601	1113.1345	40.608051	-155.1382	540.71124	123.16875	-254.7003	617.20599	75.812225	-276.83212	701.48859	94.878448	-280.73584	840.71478	120.58227	-162.77119	692.34979	150.8121	-179.12782	837.21594	184.34554	-171.60771	791.36261	187.65405	-168.16254	762.52789	182.88123	-205.11122	771.14978	186.5878	-148.78497	459.46945	126.55346	-202.15276	444.56308	71.844818	-133.26512	201.4493	50.101723	-58.56395	98.353981	72.173302	-192.67198	390.88699	41.67617	-191.16452	362.9993	48.789848	-177.63788	367.12378	13.522347	17.95233	64.630569	34.027046	-201.34015	59.666168	42.472034	-142.43971	110.55182	45.989597	-165.31909	93.617058	56.999828	-171.09279	98.954407	19.511843	-333.10657	556.41132	-151.33125	-395.48911	661.43579	-96.185524	-377.98761	745.98767	-91.171036	-321.85938	864.81158	-93.660934	-282.94989	705.9021	-170.77278	-223.65927	842.97284	-191.65562	-239.66574	792.45892	-199.39442	-259.78879	771.59766	-196.89114	-224.73772	756.48468	-191.1326	-312.25961	494.81781	-154.66321	-363.60489	469.89954	-108.32659	-191.02768	255.81413	-136.3541	-238.53535	249.81087	-90.63308	-148.18752	157.25117	-121.9953	-324.47842	410.47635	-52.482845	-307.78671	388.04742	-45.611073	-327.84528	376.82605	-75.349442	-66.475616	152.79428	-84.499458	-270.7753	76.70845	-82.641373	-237.84618	140.01941	-83.885078
537	5.36	-297.67029	116.74419	-72.191689	-298.1181	118.26936	-109.63107	-253.37651	1450.2981	1.5733106	-265.96399	1422.5516	7.5414095	-258.28513	1426.3701	-29.293312	-249.2028	1071.4259	119.92387	-235.44853	1083.4398	-127.47954	-79.589142	1087.5249	78.342514	-72.155075	1088.7902	-39.276192	-64.980072	1144.8177	14.02534	-58.603447	1119.6356	2.6440399	-58.685188	1114.0063	41.696205	-157.91353	541.43378	123.55337	-259.28268	615.9458	76.680359	-283.86075	699.84436	96.060776	-290.21109	839.09131	122.18711	-168.83789	693.1601	150.87595	-187.87291	837.34259	184.95557	-179.72966	791.93365	188.42026	-175.4138	763.00629	183.22838	-212.2881	770.547	187.1637	-150.66159	460.15341	126.85111	-203.5004	444.2999	71.691452	-134.27396	202.16013	50.242477	-59.201256	99.22554	72.11911	-194.37749	391.51144	42.022427	-193.21513	363.68768	49.701416	-179.44092	367.90067	14.000268	17.445444	65.90667	33.801044	-201.83879	59.505131	42.555679	-143.29747	111.27299	46.191593	-165.9445	93.622086	57.091404	-171.65768	98.878159	19.551189	-350.64139	558.81036	-149.48567	-412.07425	665.42688	-94.213394	-393.37723	749.56384	-89.018433	-335.83026	867.43481	-91.902901	-300.64108	708.6236	-170.39323	-239.17128	845.08539	-191.53311	-256.28925	794.60175	-199.36371	-276.62817	774.05212	-196.50803	-241.88939	758.48969	-191.56232	-331.42703	496.01276	-152.42714	-384.35965	473.87158	-106.99624	-224.93304	249.7765	-133.71965	-273.4216	246.55626	-88.685799	-188.8546	148.64195	-119.08855	-350.69009	411.81421	-51.186989	-335.44748	388.27615	-44.266563	-355.35193	378.56561	-74.618629	-107.79811	138.91335	-81.097969	-316.50247	76.227654	-80.348274	-279.45193	137.28934	-81.377403
538	5.37	-341.02472	115.83261	-70.029572	-341.22711	117.36222	-107.36155	-267.51437	1450.2758	2.3788891	-280.10779	1422.5405	8.3043203	-272.2164	1426.2878	-28.496096	-262.20129	1070.8219	121.32264	-248.88458	1083.8738	-126.15511	-92.999634	1087.5017	78.265945	-85.151077	1089.6031	-38.642994	-78.461098	1145.5807	14.719518	-71.635818	1120.3203	3.4086819	-71.728767	1114.5469	42.41465	-160.85901	542.20209	124.10001	-263.4455	614.13855	77.183784	-290.33261	697.96729	97.754601	-299.91342	837.50281	123.50085	-174.89359	693.50336	151.47408	-196.55289	837.26813	185.55351	-187.15158	791.86914	188.47406	-182.78514	763.28925	183.71761	-219.79895	770.15979	187.8775	-152.63156	460.86594	127.4122	-205.24677	444.49042	72.098564	-135.5099	203.16963	50.654896	-59.980076	100.11413	71.972839	-196.34087	392.10596	42.512997	-194.69028	364.06982	50.270531	-181.6505	368.66772	14.714009	17.040462	66.833908	33.708805	-202.60052	59.936905	43.042896	-144.01302	110.92091	46.273144	-166.36214	93.693039	56.978043	-172.15622	98.753746	19.509518	-367.38983	560.41718	-147.53102	-428.02893	668.57819	-92.374977	-408.37411	752.33209	-87.013901	-349.66348	869.33148	-90.260468	-317.4028	710.71332	-169.63995	-255.48651	846.93768	-192.48775	-272.60333	796.27386	-199.25797	-293.13644	775.99091	-196.12547	-258.53094	759.93567	-191.82121	-349.90408	496.52457	-150.18707	-404.61533	477.27307	-105.62156	-259.17014	243.87575	-130.86597	-308.4704	243.58263	-86.847183	-230.0032	140.50241	-116.30641	-376.40817	413.07269	-50.074062	-362.77933	388.49054	-42.895264	-382.45615	380.29218	-73.840836	-149.88499	125.59618	-77.502731	-362.44464	76.736687	-78.152443	-321.61911	135.30632	-79.050613
539	5.38	-384.66248	116.02446	-67.861298	-384.44147	117.40173	-105.28931	-281.65417	1449.8522	3.1718931	-294.22729	1422.1052	9.0764437	-286.20844	1425.8136	-27.709759	-275.00806	1069.8135	122.32046	-262.3591	1083.9393	-124.98477	-106.51675	1087.1265	78.849022	-98.460251	1089.6384	-38.139744	-91.832275	1145.2524	15.370107	-85.166771	1119.9373	3.6213205	-85.023796	1114.2244	42.815296	-163.86861	542.82123	124.688	-268.24078	612.58276	78.349823	-297.26276	695.92444	99.170494	-309.14648	835.159	125.11614	-181.2677	693.76172	152.25809	-205.56779	837.14423	186.22148	-195.4696	792.00262	189.12549	-190.49298	763.4856	184.32524	-227.4462	769.61041	188.55435	-154.52599	461.61151	127.71036	-207.25786	444.76135	72.893845	-136.23024	203.63571	51.076103	-60.663708	100.90018	71.921989	-198.27965	392.51804	43.533936	-196.61322	364.54709	51.055626	-184.09251	369.30121	15.291166	16.484314	68.074295	33.612564	-202.84169	59.686562	42.893269	-144.48415	111.26479	46.477684	-167.07596	93.804039	57.518822	-172.83794	98.66349	19.663465	-383.68298	561.53058	-145.61003	-443.40118	670.83728	-90.743736	-422.98682	754.24713	-85.204414	-363.2717	870.40814	-88.763702	-333.64874	712.10248	-168.83679	-270.14517	847.64307	-191.62576	-288.54959	797.35211	-199.08429	-309.16745	777.25098	-195.64336	-274.67569	760.83972	-191.65312	-368.18994	496.50021	-148.06007	-424.30035	480.14966	-104.22374	-293.65762	238.14847	-128.23676	-343.61508	240.98386	-85.038734	-271.89532	133.08987	-113.51149	-401.37991	414.42975	-48.823334	-389.48788	389.02112	-41.485767	-409.02734	382.07062	-72.845917	-193.02048	113.00459	-74.11554	-408.50488	78.339951	-76.194275	-363.89859	134.14201	-76.782875
